<svg width="36" height="48" viewBox="0 0 36 48" fill="none" xmlns="http://www.w3.org/2000/svg">
<path d="M18 28.5C19.864 28.5 21.375 26.4853 21.375 24C21.375 21.5147 19.864 19.5 18 19.5C16.136 19.5 14.625 21.5147 14.625 24C14.625 26.4853 16.136 28.5 18 28.5Z" fill="#919590"/>
<path d="M18 43.5C19.864 43.5 21.375 41.4853 21.375 39C21.375 36.5147 19.864 34.5 18 34.5C16.136 34.5 14.625 36.5147 14.625 39C14.625 41.4853 16.136 43.5 18 43.5Z" fill="#919590"/>
<path d="M18 13.5C19.864 13.5 21.375 11.4853 21.375 9C21.375 6.51472 19.864 4.5 18 4.5C16.136 4.5 14.625 6.51472 14.625 9C14.625 11.4853 16.136 13.5 18 13.5Z" fill="#919590"/>
</svg>
