<svg width="101" height="89" viewBox="0 0 101 89" fill="none" xmlns="http://www.w3.org/2000/svg">
<g filter="url(#filter0_b)">
<path fill-rule="evenodd" clip-rule="evenodd" d="M8.41675 44.5C8.41675 24.0189 27.2575 7.41669 50.5001 7.41669C73.7427 7.41669 92.5834 24.0189 92.5834 44.5C92.5834 64.9811 73.7427 81.5834 50.5001 81.5834C27.2575 81.5834 8.41675 64.9811 8.41675 44.5ZM50.5001 14.8334C41.5711 14.8334 33.0079 17.9589 26.6942 23.5225C20.3804 29.0861 16.8334 36.6319 16.8334 44.5C16.8334 52.3681 20.3804 59.9139 26.6942 65.4775C33.0079 71.0411 41.5711 74.1667 50.5001 74.1667C59.429 74.1667 67.9923 71.0411 74.306 65.4775C80.6197 59.9139 84.1667 52.3681 84.1667 44.5C84.1667 36.6319 80.6197 29.0861 74.306 23.5225C67.9923 17.9589 59.429 14.8334 50.5001 14.8334Z" fill="#F57804" fill-opacity="0.92"/>
<path fill-rule="evenodd" clip-rule="evenodd" d="M54.7083 25.9583C54.7083 24.9748 54.265 24.0316 53.4757 23.3361C52.6865 22.6407 51.6161 22.25 50.5 22.25C49.3839 22.25 48.3135 22.6407 47.5243 23.3361C46.735 24.0316 46.2917 24.9748 46.2917 25.9583V40.7917H29.4583C28.3422 40.7917 27.2718 41.1824 26.4826 41.8778C25.6934 42.5733 25.25 43.5165 25.25 44.5C25.25 45.4835 25.6934 46.4267 26.4826 47.1222C27.2718 47.8176 28.3422 48.2083 29.4583 48.2083H46.2917V63.0417C46.2917 64.0252 46.735 64.9684 47.5243 65.6639C48.3135 66.3593 49.3839 66.75 50.5 66.75C51.6161 66.75 52.6865 66.3593 53.4757 65.6639C54.265 64.9684 54.7083 64.0252 54.7083 63.0417V48.2083H71.5417C72.6578 48.2083 73.7282 47.8176 74.5174 47.1222C75.3066 46.4267 75.75 45.4835 75.75 44.5C75.75 43.5165 75.3066 42.5733 74.5174 41.8778C73.7282 41.1824 72.6578 40.7917 71.5417 40.7917H54.7083V25.9583Z" fill="#F57804" fill-opacity="0.92"/>
</g>
<defs>
<filter id="filter0_b" x="-4" y="-4" width="109" height="97" filterUnits="userSpaceOnUse" color-interpolation-filters="sRGB">
<feFlood flood-opacity="0" result="BackgroundImageFix"/>
<feGaussianBlur in="BackgroundImage" stdDeviation="2"/>
<feComposite in2="SourceAlpha" operator="in" result="effect1_backgroundBlur"/>
<feBlend mode="normal" in="SourceGraphic" in2="effect1_backgroundBlur" result="shape"/>
</filter>
</defs>
</svg>
