<svg width="29" height="23" viewBox="0 0 29 23" fill="none" xmlns="http://www.w3.org/2000/svg">
<path d="M13.228 22.0948C13.3603 22.2969 13.5373 22.4621 13.7437 22.5762C13.9501 22.6904 14.1798 22.75 14.413 22.75C14.6463 22.75 14.876 22.6904 15.0824 22.5762C15.2888 22.4621 15.4658 22.2969 15.5981 22.0948L28.5726 2.37949C28.7227 2.15209 28.8108 1.88574 28.8272 1.60939C28.8436 1.33303 28.7877 1.05723 28.6655 0.811958C28.5434 0.566686 28.3597 0.361319 28.1344 0.21817C27.9091 0.0750214 27.6508 -0.000434259 27.3876 1.88001e-06H1.43853C1.17593 0.00114296 0.918595 0.0775689 0.694197 0.22106C0.4698 0.364552 0.28683 0.56968 0.164964 0.814385C0.0430987 1.05909 -0.0130512 1.33411 0.0025528 1.60988C0.0181568 1.88565 0.104924 2.15172 0.253524 2.37949L13.228 22.0948Z" fill="black"/>
</svg>
