<svg  class="xx" width="42" height="38" viewBox="0 0 42 38" fill="blue" xmlns="http://www.w3.org/2000/svg">
<path d="M21.0003 33.6667L38.7087 14.9167V6.58334L31.417 3.45834L21.0003 6.58334L10.5837 3.45834L3.29199 6.58334V14.9167L21.0003 33.6667Z"/>
<path d="M21 8.66667L22.5792 6.58334C24.4042 4.17292 27.125 2.41667 30.375 2.41667C32.0727 2.41654 33.7387 2.87744 35.1949 3.75017C36.6512 4.6229 37.8431 5.8747 38.6435 7.37194C39.4439 8.86918 39.8227 10.5557 39.7394 12.2514C39.6562 13.9471 39.114 15.5884 38.1708 17C36.4896 19.5125 21 35.75 21 35.75" stroke="black" stroke-width="4.16667" stroke-linecap="round"/>
<path d="M21.0002 8.66667L19.4211 6.58334C17.5961 4.17292 14.8752 2.41667 11.6252 2.41667C9.92748 2.41654 8.26156 2.87744 6.80529 3.75017C5.34903 4.6229 4.15709 5.8747 3.35671 7.37194C2.55633 8.86918 2.17754 10.5557 2.26079 12.2514C2.34404 13.9471 2.8862 15.5884 3.82939 17C5.51064 19.5125 21.0002 35.75 21.0002 35.75" stroke="black" stroke-width="4.16667" stroke-linecap="round"/>
</svg>
