<svg width="50" height="50" viewBox="0 0 50 50" fill="none" xmlns="http://www.w3.org/2000/svg">
<path d="M25.0003 41.6667L42.7087 22.9167V14.5833L35.417 11.4583L25.0003 14.5833L14.5837 11.4583L7.29199 14.5833V22.9167L25.0003 41.6667Z" fill="black" fill-opacity="0.3"/>
<path d="M25 16.6667L26.5792 14.5833C28.4042 12.1729 31.125 10.4167 34.375 10.4167C36.0727 10.4165 37.7387 10.8774 39.1949 11.7502C40.6512 12.6229 41.8431 13.8747 42.6435 15.3719C43.4439 16.8692 43.8227 18.5557 43.7394 20.2514C43.6562 21.9471 43.114 23.5884 42.1708 25C40.4896 27.5125 25 43.75 25 43.75" stroke="black" stroke-width="4.16667" stroke-linecap="round"/>
<path d="M25.0002 16.6667L23.4211 14.5833C21.5961 12.1729 18.8752 10.4167 15.6252 10.4167C13.9275 10.4165 12.2616 10.8774 10.8053 11.7502C9.34903 12.6229 8.15709 13.8747 7.35671 15.3719C6.55633 16.8692 6.17754 18.5557 6.26079 20.2514C6.34404 21.9471 6.8862 23.5884 7.82939 25C9.51064 27.5125 25.0002 43.75 25.0002 43.75" stroke="black" stroke-width="4.16667" stroke-linecap="round"/>
</svg>
