<svg width="93" height="62" viewBox="0 0 93 62" fill="none" xmlns="http://www.w3.org/2000/svg">
<path d="M88.35 -7.7486e-07C87.7394 -8.26237e-05 92.2022 0.752107 91.638 0.907962C91.0739 1.06382 89.3416 2.81198 88.9101 3.1V3.1C82.4449 6.71964 75.1593 8.62032 67.7498 8.62032H13.95C10.2514 8.62278 6.70527 13.3831 4.08994 15.1266C1.47461 16.8702 0.0036931 19.2342 0 21.7V52.7C0.0036931 55.1658 1.47461 57.5298 4.08994 59.2734C6.70527 61.0169 10.2514 61.9975 13.95 62H79.05C82.7486 61.9975 86.2947 61.0169 88.9101 59.2734C91.5254 57.5298 92.9963 55.1658 93 52.7V3.1C93 2.27782 92.5101 1.48932 91.638 0.907962C90.766 0.326599 89.5833 -7.7486e-07 88.35 -7.7486e-07Z" fill="#B3EFA3"/>
</svg>
